<svg width="228" height="72" viewBox="0 0 228 72" fill="none" xmlns="http://www.w3.org/2000/svg">
<path d="M46.904 60.096H21.752L17.72 72H0.536L24.92 4.608H43.928L68.312 72H50.936L46.904 60.096ZM42.68 47.424L34.328 22.752L26.072 47.424H42.68ZM116.533 37.44C120.437 38.272 123.573 40.224 125.941 43.296C128.309 46.304 129.493 49.76 129.493 53.664C129.493 59.296 127.509 63.776 123.541 67.104C119.637 70.368 114.165 72 107.125 72H75.7333V4.608H106.069C112.917 4.608 118.261 6.176 122.101 9.31199C126.005 12.448 127.957 16.704 127.957 22.08C127.957 26.048 126.901 29.344 124.789 31.968C122.741 34.592 119.989 36.416 116.533 37.44ZM92.1493 31.872H102.901C105.589 31.872 107.637 31.296 109.045 30.144C110.517 28.928 111.253 27.168 111.253 24.864C111.253 22.56 110.517 20.8 109.045 19.584C107.637 18.368 105.589 17.76 102.901 17.76H92.1493V31.872ZM104.245 58.752C106.997 58.752 109.109 58.144 110.581 56.928C112.117 55.648 112.885 53.824 112.885 51.456C112.885 49.088 112.085 47.232 110.485 45.888C108.949 44.544 106.805 43.872 104.053 43.872H92.1493V58.752H104.245ZM135.655 17.184V1.92H162.247V72H145.159V17.184H135.655ZM173.476 36C173.476 24.992 175.588 16.32 179.812 9.984C184.1 3.64799 190.98 0.479994 200.452 0.479994C209.924 0.479994 216.772 3.64799 220.996 9.984C225.284 16.32 227.428 24.992 227.428 36C227.428 47.136 225.284 55.872 220.996 62.208C216.772 68.544 209.924 71.712 200.452 71.712C190.98 71.712 184.1 68.544 179.812 62.208C175.588 55.872 173.476 47.136 173.476 36ZM211.3 36C211.3 29.536 210.596 24.576 209.188 21.12C207.78 17.6 204.868 15.84 200.452 15.84C196.036 15.84 193.124 17.6 191.716 21.12C190.308 24.576 189.604 29.536 189.604 36C189.604 40.352 189.86 43.968 190.372 46.848C190.884 49.664 191.908 51.968 193.444 53.76C195.044 55.488 197.38 56.352 200.452 56.352C203.524 56.352 205.828 55.488 207.364 53.76C208.964 51.968 210.02 49.664 210.532 46.848C211.044 43.968 211.3 40.352 211.3 36Z" fill="#CD295A"/>
</svg>
